<?xml version="1.0" standalone="no"?>
<!DOCTYPE svg PUBLIC "-//W3C//DTD SVG 20010904//EN"
 "http://www.w3.org/TR/2001/REC-SVG-20010904/DTD/svg10.dtd">
<svg version="1.0" xmlns="http://www.w3.org/2000/svg"
 width="300.000000pt" height="300.000000pt" viewBox="0 0 300.000000 300.000000"
 preserveAspectRatio="xMidYMid meet">
<metadata>
Created by potrace 1.14, written by Peter Selinger 2001-2017
</metadata>
<g transform="translate(0.000000,300.000000) scale(0.100000,-0.100000)"
fill="#000000" stroke="none">
<path d="M1311 2251 c-13 -13 -21 -34 -21 -56 0 -31 -5 -38 -35 -52 -30 -14
-35 -22 -35 -50 0 -28 -6 -36 -37 -52 -21 -11 -54 -33 -73 -51 -19 -17 -40
-35 -45 -38 -22 -14 -84 -99 -108 -147 -41 -84 -57 -175 -52 -310 2 -66 7
-133 10 -150 30 -148 40 -192 62 -270 13 -49 38 -144 55 -210 19 -76 38 -129
52 -143 20 -23 68 -48 111 -59 36 -9 199 -11 253 -4 l52 7 1 -55 c0 -31 1 -74
2 -96 2 -43 5 -42 -65 -28 -68 13 -149 -31 -184 -100 -24 -44 -13 -122 21
-153 l26 -24 -21 -67 c-11 -37 -30 -83 -40 -101 -11 -18 -20 -35 -20 -38 0 -2
142 -4 316 -4 l316 0 -5 27 c-3 16 -10 46 -15 69 -11 49 0 81 31 95 34 15 62
-2 78 -46 7 -19 16 -35 19 -35 6 0 12 -36 14 -82 1 -28 1 -28 77 -28 85 0 85
0 66 80 -11 47 -66 173 -78 178 -8 3 12 62 21 62 3 0 5 31 5 69 -2 82 -24 121
-84 144 -46 19 -81 14 -136 -16 -35 -20 -101 -27 -155 -18 -5 1 -10 50 -13
145 l-2 60 35 8 c19 5 58 18 85 28 28 11 59 22 70 24 11 2 35 10 54 17 l33 14
-6 125 c-3 69 -8 138 -11 154 -3 16 -8 70 -10 120 -2 50 -5 91 -5 91 -1 0 -3
29 -5 65 -4 60 -14 209 -20 290 -2 19 -5 42 -8 50 -3 8 -13 46 -22 83 -23 93
-75 194 -127 243 -56 54 -130 94 -178 97 -21 1 -37 4 -35 7 2 3 -2 13 -9 22
-10 14 -34 22 -78 27 -5 1 -7 4 -7 9 11 66 -75 118 -120 73z"/>
</g>
</svg>
